<?xml version="1.0" standalone="no"?>
<!DOCTYPE svg PUBLIC "-//W3C//DTD SVG 20010904//EN"
 "http://www.w3.org/TR/2001/REC-SVG-20010904/DTD/svg10.dtd">
<svg version="1.0" xmlns="http://www.w3.org/2000/svg"
 width="1152.000000pt" height="1152.000000pt" viewBox="0 0 1152.000000 1152.000000"
 preserveAspectRatio="xMidYMid meet">
<metadata>
Created by potrace 1.11, written by Peter Selinger 2001-2013
</metadata>
<g transform="translate(0.000000,1152.000000) scale(0.100000,-0.100000)"
fill="#000000" stroke="none">
<path d="M395 10351 c-84 -25 -111 -37 -158 -70 -117 -81 -192 -188 -223 -320
-19 -79 -17 -399 3 -471 8 -30 16 -59 17 -65 12 -46 84 -155 130 -194 10 -9
25 -23 34 -31 40 -38 155 -91 232 -106 19 -4 1050 -8 2290 -8 l2255 -1 2
-3720 c1 -2696 5 -3738 13 -3785 27 -155 150 -316 290 -378 109 -48 146 -53
408 -51 180 1 261 5 297 15 28 8 55 16 60 17 71 19 196 116 247 192 39 57 75
143 86 206 7 36 10 1549 10 4422 l0 4367 -2966 -1 c-2816 0 -2970 -1 -3027
-18z"/>
<path d="M8510 7615 l0 -642 1323 2 c988 1 1329 4 1350 13 15 6 27 10 27 7 0
-4 76 34 115 58 77 47 162 176 185 280 13 61 12 564 -1 573 -5 3 -9 15 -9 28
0 12 -7 31 -15 42 -8 10 -15 27 -15 37 0 9 -4 17 -10 17 -5 0 -10 6 -10 14 0
7 -27 40 -59 73 -58 58 -152 114 -216 129 -16 4 -623 7 -1347 8 l-1318 2 0
-641z"/>
<path d="M8514 4541 c-2 -2 -4 -292 -4 -644 0 -634 0 -639 20 -634 11 3 23 1
26 -4 3 -5 10 -7 15 -3 14 8 434 8 448 0 6 -4 11 -3 11 1 0 10 53 9 69 -2 6
-3 11 -2 11 2 0 10 53 9 69 -2 6 -3 11 -2 11 2 0 10 53 9 69 -2 6 -3 11 -2 11
2 0 10 53 9 69 -2 6 -3 11 -2 11 2 0 10 53 9 69 -2 6 -3 11 -2 11 2 0 10 53 9
69 -2 6 -3 11 -2 11 2 0 10 53 9 69 -2 6 -3 11 -3 11 2 0 4 38 8 85 8 47 0 85
-3 85 -7 0 -4 7 -5 16 -1 22 8 224 9 224 1 0 -4 7 -5 16 -1 22 8 224 9 224 1
0 -4 7 -5 16 -1 24 9 224 9 224 0 0 -5 5 -5 11 -2 14 9 434 9 448 1 6 -4 11
-3 11 1 0 10 53 9 69 -2 6 -3 11 -3 11 2 0 4 14 8 30 9 17 1 30 -3 30 -9 0 -6
4 -6 13 0 6 6 19 10 28 10 27 -1 113 25 129 38 8 7 25 16 38 20 12 3 49 32 82
64 58 56 110 145 128 218 9 35 9 547 1 588 -10 42 -47 127 -66 148 -9 9 -14
17 -10 17 5 0 -66 72 -95 95 -13 11 -70 42 -118 64 -14 6 -40 13 -57 14 -18 1
-33 4 -33 7 0 6 -2610 7 -2616 1z"/>
</g>
</svg>
