<svg id="Calque_1" data-name="Calque 1" xmlns="http://www.w3.org/2000/svg" viewBox="0 0 240.04 168.11"><rect x="47.84" y="26.29" width="79.75" height="16.1" rx="6.61"/><path d="M61.26,75.2H170.19a6.61,6.61,0,0,1,6.61,6.61V86.3a6.61,6.61,0,0,1-6.61,6.61H67.87a6.61,6.61,0,0,1-6.61-6.61V75.2a0,0,0,0,1,0,0Z" transform="translate(203.09 -34.98) rotate(90)"/><path d="M154.47,52.77h32.05a5.67,5.67,0,0,1,5.67,5.67v4.75a5.67,5.67,0,0,1-5.67,5.67H154.47a0,0,0,0,1,0,0V52.77A0,0,0,0,1,154.47,52.77Z"/><path d="M154.47,99.25h32.05a5.67,5.67,0,0,1,5.67,5.67v4.75a5.67,5.67,0,0,1-5.67,5.67H154.47a0,0,0,0,1,0,0V99.25A0,0,0,0,1,154.47,99.25Z"/></svg>