<?xml version="1.0" encoding="UTF-8"?> <svg xmlns="http://www.w3.org/2000/svg" xmlns:xlink="http://www.w3.org/1999/xlink" id="Calque_1" data-name="Calque 1" viewBox="0 0 292.44 100.6"><defs><style>.cls-1{fill:none;}.cls-2{clip-path:url(#clip-path);}.cls-3,.cls-4{fill:#235478;}.cls-4{font-size:20.72px;font-family:Avenir-Roman, Avenir;}.cls-5{letter-spacing:0.16em;}.cls-6{letter-spacing:0.16em;}.cls-7{letter-spacing:0.16em;}.cls-8{letter-spacing:0.16em;}.cls-9{fill:#fff;}</style><clipPath id="clip-path"><rect class="cls-1" width="292.44" height="100.6"></rect></clipPath></defs><g class="cls-2"><g class="cls-2"><path class="cls-3" d="M67.18,48.17a4.41,4.41,0,0,1-3.79-1.5,5.34,5.34,0,0,1-1-3.3,9.7,9.7,0,0,1,.08-1.29q.12-1.23.12-2.19c0-.28,0-.55,0-.79a2.9,2.9,0,0,0-.83-1.88,5,5,0,0,0-2.45-1.06A24.75,24.75,0,0,1,56.09,41,11.75,11.75,0,0,1,52,44.2a11.19,11.19,0,0,1-4.65,1,9.19,9.19,0,0,1-5-1.3A10.67,10.67,0,0,1,37.74,45a6.24,6.24,0,0,1-4.49-1.57,4.81,4.81,0,0,1-1.13-1.81l0,0c0-.08.06-.13.16-.15l.8-.14s.07,0,.1.07a3.85,3.85,0,0,0,1,1.59,4.84,4.84,0,0,0,3.57,1.26,9,9,0,0,0,3.83-.9,6.92,6.92,0,0,1-2.9-5.15,4.37,4.37,0,0,1,.66-2.08,4,4,0,0,1,1.61-1.53,4.52,4.52,0,0,1,2.1-.51,3.7,3.7,0,0,1,2.54.82,4.12,4.12,0,0,1,1.29,3.23A5.51,5.51,0,0,1,45.05,42a8.68,8.68,0,0,1-1.77,1.36,5.7,5.7,0,0,0,2.66,1l.62,0q4,0,7.46-5.89,1.62-2.8,3.18-6c.94-2,1.92-3.87,2.95-5.69a23.69,23.69,0,0,1,3.4-4.64A21.08,21.08,0,0,0,61.42,22a14.13,14.13,0,0,0-7.34,1.87,11.52,11.52,0,0,0-4.43,4.53,9.12,9.12,0,0,0-1.09,4.26,4.58,4.58,0,0,0,.87,2.76,1.45,1.45,0,0,0,1.12.6c.72,0,1.42-.57,2.1-1.72a.39.39,0,0,1,.34-.19l.14,0v0l.77.19a1,1,0,0,1,.5.42.46.46,0,0,1,.08.24.52.52,0,0,1-.08.25,4.43,4.43,0,0,1-.74.89,2.78,2.78,0,0,1-1.66.91l-.78,0A3.59,3.59,0,0,1,49,36.33a3.34,3.34,0,0,1-1.28-2,12.4,12.4,0,0,1-.15-1.65,8.56,8.56,0,0,1,.2-1.87,11.57,11.57,0,0,1,5.75-7.56,15.58,15.58,0,0,1,8-2,22.25,22.25,0,0,1,2.82.18A8.27,8.27,0,0,1,66.57,20l.69.94a3.44,3.44,0,0,0-1,.82,13.43,13.43,0,0,1,4.87,2.13,6.37,6.37,0,0,1,2.59,3.76,6.8,6.8,0,0,1,.1,1.18,6.19,6.19,0,0,1-1.11,3.56A8.85,8.85,0,0,1,69,35.58a11.69,11.69,0,0,1-4.78,1.05c-.34,0-.69,0-1.05,0A3.93,3.93,0,0,1,65,38.89a10.46,10.46,0,0,1,.29,2.28,10,10,0,0,1-.22,2,9.8,9.8,0,0,0-.22,2.08c0,1.42.83,2.13,2.48,2.13h.32A4.38,4.38,0,0,0,69.09,47h.1l.08,0v0l.31.34s.06,0,.09.06a.14.14,0,0,1,0,.11c0,.07,0,.13-.16.18h0a5.7,5.7,0,0,1-2.34.48M42.57,42.78a7.54,7.54,0,0,0,1.58-1.24,4.82,4.82,0,0,0,1.59-3.42,4.72,4.72,0,0,0-.32-1.69,2.2,2.2,0,0,0-1.8-1.53l-.4,0a1.84,1.84,0,0,0-1.31.47,3.13,3.13,0,0,0-.86,1.43,5.34,5.34,0,0,0-.25,1.52,6.19,6.19,0,0,0,1.77,4.49m21.51-7a8.24,8.24,0,0,0,4.13-1.37,6.44,6.44,0,0,0,3-5.31,6.14,6.14,0,0,0-.1-1.12c-.57-2.75-2.37-4.55-5.42-5.41a40.69,40.69,0,0,0-3.29,6.87c-.72,1.78-1.5,3.59-2.36,5.43a5.64,5.64,0,0,0,1.86.72,9.25,9.25,0,0,0,1.83.2Z"></path><path class="cls-3" d="M75.94,44.43a5.85,5.85,0,0,1-4-1.34,4,4,0,0,1-1.45-3.2,4.93,4.93,0,0,1,.06-.75A10.55,10.55,0,0,1,72,35.59a7.16,7.16,0,0,1,3.16-2.86,9.2,9.2,0,0,1,3.7-.81c.32,0,.65,0,1,0q4.42.48,4.42,4.25a5.57,5.57,0,0,1-.89,3,4.94,4.94,0,0,1-.71,1.66h.21a5.49,5.49,0,0,0,1.26-.15,5.73,5.73,0,0,0,3.53-2.41l1,.34a6.47,6.47,0,0,1-4.17,2.82,7,7,0,0,1-1.68.2l-.6,0c-.29.34-.61.68-1,1a6.43,6.43,0,0,1-2,1.19,9.27,9.27,0,0,1-3.27.6m.73-.88a5,5,0,0,0,2-.43,5.45,5.45,0,0,0,2.2-1.55L81,41.4a3.26,3.26,0,0,1-2.68-3.27,3.06,3.06,0,0,1,.55-1.79A2.69,2.69,0,0,1,80,35.4a2.38,2.38,0,0,1,1-.25,2.12,2.12,0,0,1,1.37.44,2.92,2.92,0,0,1,.73.94v-.26A4.71,4.71,0,0,0,83,35a2.66,2.66,0,0,0-1.56-1.88L81.08,33l-.46,0a3.8,3.8,0,0,0-2.22.8A9.63,9.63,0,0,0,76,36.33a10.11,10.11,0,0,0-1.41,2.82,7.44,7.44,0,0,0-.35,2,3.24,3.24,0,0,0,.22,1.23,2,2,0,0,0,2,1.22Zm4.92-3A3.87,3.87,0,0,0,82.23,39a8,8,0,0,0,.08-1c0-1.27-.4-1.95-1.19-2a1.54,1.54,0,0,0-.58.12A2.17,2.17,0,0,0,79.43,38v.12a2.47,2.47,0,0,0,2.1,2.58Z"></path><path class="cls-3" d="M100.35,44.21a4.28,4.28,0,0,1-2.58-.75A2.81,2.81,0,0,1,96.6,41c0-.22,0-.37,0-.47l-.75.67a10.48,10.48,0,0,1-2.65,1.69,6.66,6.66,0,0,1-2.65.6,7.19,7.19,0,0,1-1-.07c-1.56-.29-2.46-.79-2.71-1.49a5.08,5.08,0,0,1-.38-1.7A5.28,5.28,0,0,1,87,38.13a9.61,9.61,0,0,1,8.92-5.52,9.09,9.09,0,0,1,1.31.09,3.19,3.19,0,0,1,1.88.94A35.09,35.09,0,0,1,104,25.77q3-3.49,5.85-3.49c1.23,0,2,.34,2.27,1a3.74,3.74,0,0,1,.24,1.31,5.6,5.6,0,0,1-.88,2.68,15.88,15.88,0,0,1-2.54,3.28,15.85,15.85,0,0,1-6.55,4.18,31.75,31.75,0,0,0-1.53,3,10.54,10.54,0,0,0-1.41,4.3,1.92,1.92,0,0,0,.16.81,1,1,0,0,0,1,.51,4.77,4.77,0,0,0,2.38-.76,13.5,13.5,0,0,0,4.33-4.33l1,.35a14.91,14.91,0,0,1-4.65,4.61,6.56,6.56,0,0,1-3.28,1m-9.13-2a7.82,7.82,0,0,0,4.35-2A9.72,9.72,0,0,0,96.9,39a23.3,23.3,0,0,1,1.51-3.87l0-.08a3.27,3.27,0,0,0,.14-.33,1.34,1.34,0,0,0-.12-.24,2.14,2.14,0,0,0-2-1,5.14,5.14,0,0,0-3.69,2,11.38,11.38,0,0,0-1.59,2.15,7,7,0,0,0-1.13,3.32q0,1.29,1.11,1.29m11.72-8.53a16.4,16.4,0,0,0,5.1-3.56,12.09,12.09,0,0,0,3.07-4.6,3.55,3.55,0,0,0,.12-1c0-.62-.12-1-.37-1.17l-.18,0q-.48,0-1.35,1a7.46,7.46,0,0,0-.66.77,79.83,79.83,0,0,0-5.73,8.63"></path><path class="cls-3" d="M132.69,45.09a3.89,3.89,0,0,1-2.15-.53,1.6,1.6,0,0,1-.8-1.41,1.38,1.38,0,0,1,.49-1,3.6,3.6,0,0,1,2.15-.67v0h.11a13.1,13.1,0,0,1,3.28.4,6.32,6.32,0,0,0,.52-.61,37.76,37.76,0,0,0,3.83-7.07c.24-.55.43-1,.59-1.29q2.56-6.42,6.53-9.24a1.09,1.09,0,0,1,.5-.11,1,1,0,0,1,.58.16l.63.64a.17.17,0,0,1,.1.14c0,.06-.05.14-.16.22a6.74,6.74,0,0,0-2.18,2.65,42.57,42.57,0,0,0-1.77,4.07,46.51,46.51,0,0,1-2.53,5.75,18.36,18.36,0,0,1-4.16,5.3,15.6,15.6,0,0,0,3.85.5c.32,0,.63,0,.94,0a9.47,9.47,0,0,0,4.58-1.76,10.92,10.92,0,0,0,2.65-2.69,6.73,6.73,0,0,0,1.22-2.4,7.88,7.88,0,0,0,.14-1.09,2.13,2.13,0,0,0-.81-1.75,3.38,3.38,0,0,0-2.15-.55,11.58,11.58,0,0,0-1.46.11h-.1v0l-.2,0c-.16,0-.25,0-.28-.13l-.12-.49c0-.08.05-.13.16-.15l.14,0a4.75,4.75,0,0,0,1.23-.38,8.49,8.49,0,0,0,3.18-2.21,5.59,5.59,0,0,0,1.43-2.38,8.06,8.06,0,0,0,.19-1.35,3.09,3.09,0,0,0-.65-1.91,3.38,3.38,0,0,0-2.32-1.34c-1-.11-1.62-.17-2-.17a22.19,22.19,0,0,0-5.42.86,24.17,24.17,0,0,0-3.18,1.18,4.71,4.71,0,0,1,.7.61,5.29,5.29,0,0,1,1.43,3.6,4.77,4.77,0,0,1-.06.76,8.63,8.63,0,0,1-4.49,6.39,6.42,6.42,0,0,1-3,.79,3.52,3.52,0,0,1-2.6-1,2.88,2.88,0,0,1-.69-2,8.62,8.62,0,0,1,1.49-4.32,15.14,15.14,0,0,1,5.42-4.92,6.16,6.16,0,0,0-1.49-.44,6.84,6.84,0,0,0-1.31-.13l-.48,0A11.13,11.13,0,0,0,129.73,25a15.31,15.31,0,0,0-3.67,2.69,15.94,15.94,0,0,0-2.54,3.24.85.85,0,0,1-.75.43,9.42,9.42,0,0,1-1.25-.31c-.18-.06-.26-.14-.26-.23l0-.08a14.12,14.12,0,0,1,5.32-5.26,16.89,16.89,0,0,1,7.56-2.53l0,.4,0-.4.6,0a8.36,8.36,0,0,1,3.37.69,2.65,2.65,0,0,0,.32.19,23.82,23.82,0,0,1,5.74-1.93,26.25,26.25,0,0,1,4.48-.52,14.83,14.83,0,0,1,3.18.34c1.92.51,3.09,1.2,3.51,2.06A5.29,5.29,0,0,1,156,26a4.71,4.71,0,0,1-.3,1.61,6.65,6.65,0,0,1-2.21,3.05,5.35,5.35,0,0,1-3.39,1.22h-.22c2.25.38,3.71,1,4.36,1.95a4.52,4.52,0,0,1,1,2.63,4.68,4.68,0,0,1-.18,1.26,7.62,7.62,0,0,1-2.43,3.66,10.05,10.05,0,0,1-4.29,2.31,18.34,18.34,0,0,1-3.81.45,16.46,16.46,0,0,1-1.84-.1,38.72,38.72,0,0,1-5.24-1,8.11,8.11,0,0,1-4.75,2M132,44a2.84,2.84,0,0,0,.61-.08,7.06,7.06,0,0,0,2.43-1.43,12.38,12.38,0,0,0-2.27-.3c-1.36.06-2,.37-2,.94a.74.74,0,0,0,.53.71A2,2,0,0,0,132,44m1.78-8.34a5.23,5.23,0,0,0,2.42-.66,6.88,6.88,0,0,0,2.17-1.78,7.6,7.6,0,0,0,1.87-4c0-.23,0-.47,0-.7a4.63,4.63,0,0,0-1.19-3.12,5.59,5.59,0,0,0-.74-.63l-.85.5,0,0A14.9,14.9,0,0,0,133,29.53a7.91,7.91,0,0,0-1.39,4,2,2,0,0,0,.54,1.54,2.17,2.17,0,0,0,1.64.65"></path><path class="cls-3" d="M167.63,44.24c-1.37-.13-2.19-.64-2.46-1.54a3.92,3.92,0,0,1-.16-1.16c0-.23,0-.46,0-.69a12,12,0,0,1-2.9,2.43,5.37,5.37,0,0,1-2.52.65,5.9,5.9,0,0,1-1.94-.35c-1-.43-1.59-1-1.71-1.58a8.13,8.13,0,0,1-.18-1.45,6.58,6.58,0,0,1,.34-2,21.49,21.49,0,0,1,2.7-5.62l.16-.28a1.36,1.36,0,0,1,1.11-.44,4,4,0,0,1,1,.16l2,.67c.11,0,.17.12.17.19a1.89,1.89,0,0,1-.31.56c-.36.53-.86,1.33-1.51,2.41-1.78,2.91-2.66,4.91-2.66,6a.8.8,0,0,0,.41.8,2.12,2.12,0,0,0,.66.11,3.06,3.06,0,0,0,1.55-.46,12.15,12.15,0,0,0,2.9-2.49c.46-.54.88-1,1.27-1.54a36.11,36.11,0,0,1,3-6,1.39,1.39,0,0,1,1-.43,1.64,1.64,0,0,1,.37,0l2,.57c.16.07.24.15.24.26a.33.33,0,0,1,0,.13c-.37.55-.9,1.41-1.59,2.59a37.79,37.79,0,0,0-1.85,3.57,7.68,7.68,0,0,0-.81,2.9c0,.58.26.87.79.87a5.44,5.44,0,0,0,3.1-1.66,17.19,17.19,0,0,0,2.74-3.2l1,.35a16.61,16.61,0,0,1-3.13,3.55,7.6,7.6,0,0,1-4.55,2.07Z"></path><path class="cls-3" d="M176.19,44.24q-2.07-.2-2.34-1.14a5.66,5.66,0,0,1-.28-1.58,13.58,13.58,0,0,1,2-5.84c.67-1.23,1.24-2.25,1.73-3a1.37,1.37,0,0,1,1-.43,1.73,1.73,0,0,1,.38,0L181,33c.19.07.28.16.28.26a.28.28,0,0,1,0,.15c-.38.54-.93,1.39-1.66,2.55s-1.38,2.35-2,3.56a7.61,7.61,0,0,0-.9,2.38v.57a.64.64,0,0,0,.73.72,5.47,5.47,0,0,0,3.1-1.66,17.57,17.57,0,0,0,2.74-3.2l.95.35A16.63,16.63,0,0,1,181,42.18a7.58,7.58,0,0,1-4.54,2.07Zm6.12-12.54a1.23,1.23,0,0,0,.57-1,1.27,1.27,0,0,0-.57-1,2.22,2.22,0,0,0-1.38-.42,2.26,2.26,0,0,0-1.38.42,1.28,1.28,0,0,0-.56,1,1.25,1.25,0,0,0,.56,1,2.2,2.2,0,0,0,1.38.43,2.17,2.17,0,0,0,1.38-.43"></path><path class="cls-3" d="M186.09,44.21a4.24,4.24,0,0,1-2.54-.74A2.82,2.82,0,0,1,182.38,41a9.49,9.49,0,0,1,.64-3.19c.36-1,.75-1.93,1.19-2.85a37.78,37.78,0,0,1,5.51-9.21q3-3.51,5.88-3.51c1.22,0,2,.34,2.23,1a3.74,3.74,0,0,1,.24,1.31,5.73,5.73,0,0,1-.88,2.7,15.31,15.31,0,0,1-2.54,3.26,15.56,15.56,0,0,1-6.53,4.18c-.52.95-1,1.88-1.47,2.8l-.1.21A11.92,11.92,0,0,0,185.16,42a2.08,2.08,0,0,0,.16.85,1.06,1.06,0,0,0,1.05.51,4.83,4.83,0,0,0,2.37-.76,13.72,13.72,0,0,0,4.34-4.33l1,.35a14.41,14.41,0,0,1-4.65,4.61,6.54,6.54,0,0,1-3.3,1m2.65-10.56a16.36,16.36,0,0,0,5.06-3.56C195.93,27.91,197,26,197,24.44c0-.6-.11-1-.33-1.12l-.2,0c-.33,0-.79.32-1.37,1a7.46,7.46,0,0,0-.66.77,77.38,77.38,0,0,0-5.69,8.63"></path><path class="cls-3" d="M206,44.21a4.24,4.24,0,0,1-2.58-.75A2.82,2.82,0,0,1,202.19,41c0-.22,0-.37,0-.47l-.75.67a10.48,10.48,0,0,1-2.65,1.69,6.63,6.63,0,0,1-2.65.6,7,7,0,0,1-1-.07c-1.56-.29-2.47-.79-2.72-1.49a5.34,5.34,0,0,1-.38-1.7,5.15,5.15,0,0,1,.52-2.14,9.28,9.28,0,0,1,2.66-3.39,9.4,9.4,0,0,1,6.25-2.13,9.09,9.09,0,0,1,1.31.09,3.22,3.22,0,0,1,1.89.94,34.73,34.73,0,0,1,4.86-7.87q3-3.49,5.86-3.49c1.23,0,2,.34,2.26,1a3.74,3.74,0,0,1,.24,1.31,5.49,5.49,0,0,1-.88,2.68,15.54,15.54,0,0,1-2.54,3.28,15.79,15.79,0,0,1-6.55,4.18,31.75,31.75,0,0,0-1.53,3,10.54,10.54,0,0,0-1.41,4.3,2.09,2.09,0,0,0,.16.81,1,1,0,0,0,1,.51,4.83,4.83,0,0,0,2.38-.76,13.7,13.7,0,0,0,4.33-4.33l1,.35a14.91,14.91,0,0,1-4.65,4.61,6.49,6.49,0,0,1-3.27,1m-9.13-2a7.79,7.79,0,0,0,4.34-2A9.72,9.72,0,0,0,202.49,39,24.23,24.23,0,0,1,204,35.08l0-.08a3.27,3.27,0,0,0,.14-.33,1.34,1.34,0,0,0-.12-.24,2.13,2.13,0,0,0-1.94-1,5.14,5.14,0,0,0-3.7,2,11.38,11.38,0,0,0-1.59,2.15,7,7,0,0,0-1.13,3.32c0,.86.37,1.29,1.12,1.29m11.71-8.53a16.17,16.17,0,0,0,5.1-3.56,12.26,12.26,0,0,0,3.08-4.6,3.55,3.55,0,0,0,.12-1c0-.62-.13-1-.38-1.17a.48.48,0,0,0-.18,0q-.48,0-1.35,1a7.46,7.46,0,0,0-.66.77,79.83,79.83,0,0,0-5.73,8.63"></path><path class="cls-3" d="M214.32,44.24Q212.27,44,212,43.1a6.06,6.06,0,0,1-.28-1.58,13.62,13.62,0,0,1,2-5.84c.66-1.23,1.24-2.25,1.73-3a1.35,1.35,0,0,1,1-.43,1.81,1.81,0,0,1,.38,0l2.28.7c.18.07.28.16.28.26a.42.42,0,0,1,0,.15c-.39.54-.94,1.39-1.66,2.55s-1.38,2.35-2,3.56a7.61,7.61,0,0,0-.9,2.38v.57a.65.65,0,0,0,.74.72,5.45,5.45,0,0,0,3.09-1.66,16.82,16.82,0,0,0,2.74-3.2l1,.35a16.61,16.61,0,0,1-3.13,3.55,7.6,7.6,0,0,1-4.55,2.07Zm6.13-12.54a1.22,1.22,0,0,0,.56-1,1.26,1.26,0,0,0-.56-1,2.48,2.48,0,0,0-2.76,0,1.27,1.27,0,0,0-.57,1,1.23,1.23,0,0,0,.57,1,2.43,2.43,0,0,0,2.76,0"></path><path class="cls-3" d="M232,44.18a3,3,0,0,1-1.67-.46A3.15,3.15,0,0,1,229,40.86a7.36,7.36,0,0,1,.71-2.74l.06-.15a10.39,10.39,0,0,0,.89-3.3c0-.82-.26-1.24-.79-1.24a2.15,2.15,0,0,0-1.17.52,14.12,14.12,0,0,0-2.89,3.16,27.88,27.88,0,0,0-2.79,5l0-.12-.64,1.58a.9.9,0,0,1-.93.56,2.29,2.29,0,0,1-.59-.09l-1.11-.3c-.36-.1-.54-.25-.54-.46l.06-.25,3.45-10.24.06-.08a.92.92,0,0,1,.93-.48,4,4,0,0,1,.72.08c1.39.35,2.1.54,2.12.57a.17.17,0,0,1,0,.12s-.26.69-.77,2c1.38-1.6,2.77-2.4,4.19-2.4a3.38,3.38,0,0,1,2.73,1.08,3.51,3.51,0,0,1,.9,2.28,11.61,11.61,0,0,1-.89,3.37,10.63,10.63,0,0,0-.84,3.14c0,.58.23.86.7.86a3.91,3.91,0,0,0,1.78-.72,13.41,13.41,0,0,0,4.27-4.28l1,.35c-.43.63-.87,1.21-1.33,1.76a14.32,14.32,0,0,1-2.37,2.22,8,8,0,0,1-3.15,1.51,5,5,0,0,1-.74.06"></path><path class="cls-3" d="M238.15,54.13a3.18,3.18,0,0,1-2.46-1,2,2,0,0,1-.54-1.41,3.43,3.43,0,0,1,.26-1.22,7.65,7.65,0,0,1,2.84-3.27,18.71,18.71,0,0,1,3.47-1.86c1.28-.53,2.61-1,4-1.52.49-.89.95-1.77,1.39-2.63A11.5,11.5,0,0,1,244.24,43a6,6,0,0,1-2.44.5,7,7,0,0,1-1-.07q-2.32-.43-2.7-1.5a5.39,5.39,0,0,1-.38-1.71,5.34,5.34,0,0,1,.5-2.12,9.28,9.28,0,0,1,2.66-3.39,9.42,9.42,0,0,1,6.27-2.13,8.91,8.91,0,0,1,1.29.09,3,3,0,0,1,2.06,1.13l.24-.57.24-.56a1,1,0,0,1,.91-.45,1.62,1.62,0,0,1,.44.07l1.85.57c.24.11.35.22.35.32l0,.08c-.35.7-.78,1.62-1.29,2.74-.8,1.82-1.8,3.86-3,6.12,2.48-1,6.65-5.53,7.63-7.07l1,.34c-.66,1.07-4,5.19-5.22,5.94a23.5,23.5,0,0,1-4,2,42.82,42.82,0,0,1-3.12,4.93,20.34,20.34,0,0,1-3.66,3.92,8.59,8.59,0,0,1-4.14,1.91l-.53,0m-.7-1A4.17,4.17,0,0,0,240,51.86,26.86,26.86,0,0,0,245.08,45,26.9,26.9,0,0,0,239,47.86a6.9,6.9,0,0,0-2.54,2.92,3.13,3.13,0,0,0-.24,1.09,1.36,1.36,0,0,0,.18.71,1.2,1.2,0,0,0,1.09.54m5-10.94a5.63,5.63,0,0,0,2.24-.61,11.76,11.76,0,0,0,2.12-1.35,9.28,9.28,0,0,0,1.48-1.41c.5-1.07,1.07-2.31,1.69-3.73a1.85,1.85,0,0,0-.22-.65,2.24,2.24,0,0,0-2-1,5.14,5.14,0,0,0-3.7,2,11.72,11.72,0,0,0-1.57,2.15,7,7,0,0,0-1.13,3.32c0,.86.36,1.29,1.07,1.29"></path></g><text class="cls-4" transform="translate(32.08 72.25) scale(1.13 1.01)"><tspan class="cls-5">M</tspan><tspan class="cls-6" x="22.09" y="0">É</tspan><tspan class="cls-7" x="37.69" y="0">D</tspan><tspan class="cls-8" x="56.34" y="0">ITE</tspan><tspan class="cls-5" x="95.86" y="0">RRA</tspan><tspan class="cls-8" x="145.65" y="0">NÉ</tspan><tspan x="180.69" y="0">E</tspan></text><g class="cls-2"><path class="cls-3" d="M43.8,53.78c0,1.77-1,3.22-2.2,3.22s-2.21-1.45-2.21-3.22,1-3.22,2.21-3.22,2.2,1.44,2.2,3.22"></path><path class="cls-3" d="M35.37,48.27s-.91.25-1.12,1.66A1.54,1.54,0,0,0,35,51.56l8.34-.17a.69.69,0,0,0,.19-.38l.17-2.41s0-.35-.26-.43Z"></path><polygon class="cls-3" points="43.14 49.31 239.17 49.14 242.42 49.14 259.54 49.12 259.54 50.46 40.82 50.63 43.14 49.31"></polygon><path class="cls-9" d="M42.81,53.78c0,1-.54,1.77-1.21,1.77s-1.22-.79-1.22-1.77S40.92,52,41.6,52s1.21.8,1.21,1.78"></path><path class="cls-3" d="M43.42,55.59a31.27,31.27,0,0,0,2-3.87s2.31,5,5.67-.26a4.38,4.38,0,0,0,5.43.95,6.53,6.53,0,0,0,2.62-2H57.89s-4.46,3.46-6.37-.07h-.88s-2.75,5.25-4.58,0h-1l-1.37,3.07Z"></path><path class="cls-3" d="M259.2,49.12V70.6a.59.59,0,1,1-1.16,0V67.76a.73.73,0,0,0-.36-.66.5.5,0,0,0-.63.16l-.58.71a.81.81,0,0,0,0,1,.52.52,0,0,0,.41.21V70.6a1.78,1.78,0,1,0,3.48,0V49.12Z"></path><path class="cls-3" d="M242.39,52.52h-3.25a3.1,3.1,0,0,1-1.69.6,1.11,1.11,0,0,1-1.09-.54l0-.06,0,1.21a4.15,4.15,0,0,0,3.35.13,7.79,7.79,0,0,0,2.66-1.34"></path><line class="cls-3" x1="242.39" y1="52.52" x2="239.14" y2="52.52"></line><path class="cls-3" d="M236.24,49.14a5.88,5.88,0,0,0-.8,1.34h1.12a6,6,0,0,1,.92-1.34Z"></path><path class="cls-3" d="M242.44,49.14a16.86,16.86,0,0,0-1.07,1.34h3.29s.75-.81,1.17-1.34Z"></path></g></g></svg> 