<svg width="78" height="63" viewBox="0 0 78 63" fill="none" xmlns="http://www.w3.org/2000/svg">
<g clip-path="url(#clip0)">
<path d="M38.732 0.00500488H4.349C1.94711 0.00500488 0 1.95189 0 4.3535C0 6.75511 1.94711 8.702 4.349 8.702H38.732C41.1339 8.702 43.081 6.75511 43.081 4.3535C43.081 1.95189 41.1339 0.00500488 38.732 0.00500488Z" fill="#FBFBFD"/>
<path d="M43.243 0L43.243 58.844C43.243 59.7911 42.8668 60.6994 42.1971 61.3691C41.5274 62.0388 40.6191 62.415 39.672 62.415H37.243C36.2959 62.415 35.3876 62.0388 34.7179 61.3691C34.0482 60.6994 33.672 59.7911 33.672 58.844V3.571C33.672 2.62391 34.0482 1.71561 34.7179 1.04592C35.3876 0.376229 36.2959 0 37.243 0L43.243 0Z" fill="#FBFBFD"/>
<path d="M57.601 14.31H74.914C75.7264 14.31 76.5054 14.6327 77.0799 15.2071C77.6543 15.7816 77.977 16.5606 77.977 17.373V19.94C77.977 20.7524 77.6543 21.5314 77.0799 22.1059C76.5054 22.6803 75.7264 23.003 74.914 23.003H57.601V14.31Z" fill="#FBFBFD"/>
<path d="M57.601 39.418H74.914C75.7264 39.418 76.5054 39.7407 77.0799 40.3151C77.6543 40.8896 77.977 41.6686 77.977 42.481V45.047C77.977 45.8594 77.6543 46.6384 77.0799 47.2129C76.5054 47.7873 75.7264 48.11 74.914 48.11H57.601V39.418Z" fill="#FBFBFD"/>
</g>
<defs>
<clipPath id="clip0">
<rect width="77.977" height="62.414" fill="white"/>
</clipPath>
</defs>
</svg>
