<?xml version="1.0" encoding="utf-8"?>
<!-- Generator: Adobe Illustrator 24.3.0, SVG Export Plug-In . SVG Version: 6.00 Build 0)  -->
<svg version="1.1" id="Calque_1" xmlns="http://www.w3.org/2000/svg" xmlns:xlink="http://www.w3.org/1999/xlink" x="0px" y="0px"
	 viewBox="0 0 166.1 115.5" style="enable-background:new 0 0 166.1 115.5;" xml:space="preserve">
<path d="M6.6,0h66.5c3.7,0,6.6,3,6.6,6.6v2.9c0,3.7-3,6.6-6.6,6.6H6.6C3,16.1,0,13.2,0,9.5V6.6C0,3,3,0,6.6,0z"/>
<path d="M80.1,0v108.9c0,3.7-3,6.6-6.6,6.6l0,0h-4.5c-3.7,0-6.6-3-6.6-6.6l0,0V6.6c0-3.7,3-6.6,6.6-6.6l0,0L80.1,0
	C80.1,0,80.1,0,80.1,0z"/>
<path d="M106.6,26.5h32.1c3.1,0,5.7,2.5,5.7,5.7l0,0v4.8c0,3.1-2.5,5.7-5.7,5.7h-32.1l0,0V26.5L106.6,26.5z"/>
<path d="M106.6,73h32.1c3.1,0,5.7,2.5,5.7,5.7v4.8c0,3.1-2.5,5.7-5.7,5.7h-32.1l0,0V73L106.6,73z"/>
</svg>
